<svg width="31" height="31" viewBox="0 0 31 31" fill="none" xmlns="http://www.w3.org/2000/svg">
<path d="M9.29546 9.29546H21.6893M9.29546 15.4924H18.5908M19.3654 24.0131L15.4924 27.8862L10.8447 23.2385H6.19701C4.96437 23.2385 3.78222 22.7488 2.91061 21.8772C2.03901 21.0056 1.54934 19.8234 1.54934 18.5908V6.19701C1.54934 4.96438 2.03901 3.78222 2.91061 2.91061C3.78222 2.03901 4.96437 1.54934 6.19701 1.54934H24.7877C26.0203 1.54934 27.2025 2.03901 28.0741 2.91061C28.9457 3.78222 29.4354 4.96438 29.4354 6.19701V13.1685M26.3369 29.4354V29.4509M26.3369 24.7877C27.0314 24.7855 27.7051 24.5503 28.2502 24.1199C28.7952 23.6895 29.1801 23.0886 29.3433 22.4136C29.5064 21.7385 29.4384 21.0282 29.1501 20.3964C28.8617 19.7645 28.3698 19.2477 27.7529 18.9285C27.1366 18.6128 26.4316 18.5149 25.7526 18.6508C25.0736 18.7867 24.4605 19.1483 24.0131 19.6768" stroke="white" stroke-width="3.04762" stroke-linecap="round" stroke-linejoin="round"/>
</svg>
