<svg width="18" height="19" viewBox="0 0 18 19" fill="none" xmlns="http://www.w3.org/2000/svg">
<path d="M12.97 11.9998C10.76 13.3328 7.178 13.3328 4.97 11.9998M15.97 5.70977L10.637 1.56177C10.169 1.19768 9.59296 1 9 1C8.40704 1 7.83101 1.19768 7.363 1.56177L2.029 5.70977C1.70844 5.95905 1.44909 6.2783 1.27076 6.64312C1.09242 7.00794 0.999809 7.40869 1 7.81477V15.0148C1 15.5452 1.21071 16.0539 1.58579 16.429C1.96086 16.8041 2.46957 17.0148 3 17.0148H15C15.5304 17.0148 16.0391 16.8041 16.4142 16.429C16.7893 16.0539 17 15.5452 17 15.0148V7.81477C17 6.99177 16.62 6.21477 15.97 5.70977Z" stroke="#403F4C" stroke-width="2" stroke-linecap="round" stroke-linejoin="round"/>
</svg>
