<svg width="64" height="64" viewBox="0 0 64 64" fill="none" xmlns="http://www.w3.org/2000/svg">
<path d="M42.6667 5.33333C44.0122 5.33291 45.3082 5.84108 46.2948 6.75599C47.2814 7.6709 47.8858 8.92492 47.9867 10.2667L48 10.6667V21.3333H50.6667C51.3198 21.3334 51.9502 21.5732 52.4383 22.0072C52.9264 22.4413 53.2383 23.0393 53.3147 23.688L53.3333 24V42.6667C53.3331 46.1026 52.0066 49.4058 49.6302 51.8874C47.2539 54.369 44.0113 55.8376 40.5787 55.9867L40 56H24C20.5641 55.9998 17.2609 54.6732 14.7793 52.2969C12.2976 49.9206 10.8291 46.678 10.68 43.2453L10.6667 42.6667V24C10.6668 23.3468 10.9065 22.7164 11.3406 22.2283C11.7746 21.7402 12.3727 21.4284 13.0213 21.352L13.3333 21.3333H16V10.6667C15.9996 9.32113 16.5078 8.02516 17.4227 7.03854C18.3376 6.05192 19.5916 5.44758 20.9333 5.34667L21.3333 5.33333H42.6667ZM42.6667 10.6667H21.3333V21.3333H42.6667V10.6667ZM29.3333 13.3333V18.6667H24V13.3333H29.3333ZM40 13.3333V18.6667H34.6667V13.3333H40Z" fill="white"/>
</svg>
