<svg width="7" height="12" viewBox="0 0 7 12" fill="none" xmlns="http://www.w3.org/2000/svg">
<path d="M0.264139 0.264139C0.0950108 0.433317 0 0.662742 0 0.901961C0 1.14118 0.0950108 1.37061 0.264139 1.53978L4.7298 6.00545L0.264139 10.4711C0.099804 10.6413 0.00887153 10.8691 0.010927 11.1057C0.0129825 11.3422 0.107861 11.5685 0.275128 11.7358C0.442395 11.903 0.668666 11.9979 0.905208 12C1.14175 12.002 1.36964 11.9111 1.53978 11.7468L6.64327 6.64327C6.8124 6.47409 6.90741 6.24467 6.90741 6.00545C6.90741 5.76623 6.8124 5.5368 6.64327 5.36762L1.53978 0.264139C1.37061 0.0950107 1.14118 0 0.901961 0C0.662742 0 0.433317 0.0950107 0.264139 0.264139Z" fill="#868E96"/>
</svg>
