<svg width="24" height="24" viewBox="0 0 24 24" fill="none" xmlns="http://www.w3.org/2000/svg">
<path fill-rule="evenodd" clip-rule="evenodd" d="M15 3C16.0609 3 17.0783 3.42143 17.8284 4.17157C18.5786 4.92172 19 5.93913 19 7V8.126C20.0027 8.39389 20.8621 9.04083 21.3968 9.9303C21.9316 10.8198 22.0999 11.8822 21.8662 12.8934C21.6326 13.9046 21.0152 14.7855 20.1444 15.3502C19.2737 15.9149 18.2176 16.1192 17.199 15.92C17.0703 15.8939 16.9377 15.8933 16.8088 15.9184C16.6799 15.9435 16.5572 15.9938 16.4478 16.0663C16.3383 16.1388 16.2441 16.2322 16.1708 16.3411C16.0974 16.45 16.0461 16.5723 16.02 16.701C15.9939 16.8297 15.9933 16.9623 16.0184 17.0912C16.0435 17.2201 16.0938 17.3428 16.1663 17.4522C16.2388 17.5617 16.3322 17.6559 16.4411 17.7292C16.55 17.8026 16.6723 17.8539 16.801 17.88C17.4892 18.0197 18.1965 18.038 18.891 17.934C18.7196 18.6459 18.3562 19.2972 17.8403 19.8169C17.3244 20.3366 16.6757 20.7048 15.9651 20.8813C15.2544 21.0579 14.5089 21.0361 13.8098 20.8182C13.1106 20.6004 12.4846 20.195 12 19.646C11.5153 20.1947 10.8894 20.5999 10.1904 20.8176C9.4914 21.0352 8.74609 21.0569 8.03559 20.8804C7.32509 20.7039 6.67663 20.3358 6.16079 19.8163C5.64495 19.2968 5.2815 18.6457 5.11 17.934C5.80418 18.0375 6.51109 18.0192 7.199 17.88C7.3277 17.8539 7.44998 17.8026 7.55888 17.7292C7.66778 17.6559 7.76116 17.5617 7.83368 17.4522C7.9062 17.3428 7.95645 17.2201 7.98156 17.0912C8.00666 16.9623 8.00613 16.8297 7.98 16.701C7.95387 16.5723 7.90264 16.45 7.82925 16.3411C7.75586 16.2322 7.66173 16.1388 7.55225 16.0663C7.44277 15.9938 7.32008 15.9435 7.19118 15.9184C7.06228 15.8933 6.9297 15.8939 6.801 15.92C6.20492 16.0411 5.58912 16.0254 5 15.874C4.14176 15.6516 3.38168 15.1504 2.83907 14.4493C2.29647 13.7481 2.00206 12.8866 2.00206 12C2.00206 11.1134 2.29647 10.2519 2.83907 9.55074C3.38168 8.84957 4.14176 8.34844 5 8.126V7C4.99995 6.18749 5.24734 5.39424 5.70924 4.7258C6.17114 4.05735 6.82565 3.54543 7.58567 3.25814C8.34569 2.97085 9.17518 2.92183 9.96375 3.11759C10.7523 3.31335 11.4626 3.74462 12 4.354C12.375 3.92792 12.8365 3.58674 13.3539 3.35325C13.8712 3.11976 14.4324 2.99933 15 3ZM12 6C11.7551 6.00003 11.5187 6.08996 11.3356 6.25272C11.1526 6.41547 11.0357 6.63975 11.007 6.883L11 7V11.535C10.3922 11.1834 9.70218 10.9989 9 11C8.73478 11 8.48043 11.1054 8.29289 11.2929C8.10536 11.4804 8 11.7348 8 12C8 12.2652 8.10536 12.5196 8.29289 12.7071C8.48043 12.8946 8.73478 13 9 13C9.50458 12.9998 9.99057 13.1904 10.3605 13.5335C10.7305 13.8766 10.9572 14.3468 10.995 14.85L11 15V17C11.0003 17.2549 11.0979 17.5 11.2728 17.6854C11.4478 17.8707 11.687 17.9822 11.9414 17.9972C12.1958 18.0121 12.4464 17.9293 12.6418 17.7657C12.8373 17.6021 12.9629 17.3701 12.993 17.117L13 17V14.994C13.0016 14.4646 13.213 13.9574 13.5879 13.5837C13.9628 13.2099 14.4706 13 15 13C15.2652 13 15.5196 12.8946 15.7071 12.7071C15.8946 12.5196 16 12.2652 16 12C16 11.7348 15.8946 11.4804 15.7071 11.2929C15.5196 11.1054 15.2652 11 15 11C14.3844 10.9996 13.7769 11.1412 13.225 11.414L13 11.535V7C13 6.73478 12.8946 6.48043 12.7071 6.29289C12.5196 6.10536 12.2652 6 12 6Z" fill="black"/>
</svg>
