<svg width="24" height="24" viewBox="0 0 24 24" fill="none" xmlns="http://www.w3.org/2000/svg">
<path d="M3 6C3.00029 5.45007 3.15173 4.9108 3.43778 4.44112C3.72382 3.97144 4.13347 3.58942 4.62194 3.33681C5.11042 3.0842 5.65894 2.97072 6.20755 3.00876C6.75616 3.04681 7.28376 3.23492 7.73269 3.55254C8.18162 3.87016 8.53462 4.30506 8.75309 4.80973C8.97157 5.3144 9.04712 5.86941 8.9715 6.41412C8.89587 6.95882 8.67198 7.47226 8.32429 7.89833C7.9766 8.32439 7.51848 8.64669 7 8.83V11.535C7.60784 11.1834 8.29782 10.9989 9 11H15C15.5304 11 16.0391 10.7893 16.4142 10.4142C16.7893 10.0391 17 9.53043 17 9V8.83C16.3325 8.59409 15.7699 8.1298 15.4116 7.51919C15.0534 6.90859 14.9225 6.19098 15.0422 5.49321C15.1619 4.79545 15.5244 4.16246 16.0656 3.70613C16.6069 3.2498 17.292 2.99951 18 2.99951C18.708 2.99951 19.3931 3.2498 19.9344 3.70613C20.4756 4.16246 20.8381 4.79545 20.9578 5.49321C21.0775 6.19098 20.9466 6.90859 20.5884 7.51919C20.2301 8.1298 19.6675 8.59409 19 8.83V9C19 10.0609 18.5786 11.0783 17.8284 11.8284C17.0783 12.5786 16.0609 13 15 13H9C8.46957 13 7.96086 13.2107 7.58579 13.5858C7.21071 13.9609 7 14.4696 7 15V15.17C7.66749 15.4059 8.23009 15.8702 8.58836 16.4808C8.94663 17.0914 9.07749 17.809 8.95781 18.5068C8.83814 19.2046 8.47563 19.8375 7.93437 20.2939C7.39311 20.7502 6.70795 21.0005 6 21.0005C5.29205 21.0005 4.60689 20.7502 4.06563 20.2939C3.52437 19.8375 3.16186 19.2046 3.04219 18.5068C2.92251 17.809 3.05337 17.0914 3.41164 16.4808C3.76991 15.8702 4.33251 15.4059 5 15.17V8.83C4.41493 8.62299 3.90842 8.23968 3.55024 7.73285C3.19206 7.22603 2.99982 6.62062 3 6Z" fill="black"/>
</svg>
