<svg width="24" height="24" viewBox="0 0 24 24" fill="none" xmlns="http://www.w3.org/2000/svg">
<path d="M20.485 10.586L21.545 11.646C21.9922 12.0928 22.2536 12.6925 22.2764 13.3243C22.2992 13.9561 22.0818 14.5731 21.668 15.051L21.546 15.181L15.182 21.546C14.735 21.9931 14.1353 22.2542 13.5035 22.2769C12.8717 22.2995 12.2548 22.082 11.777 21.668L11.647 21.546L10.586 20.486L20.485 10.586ZM2.808 2.808C3.693 1.922 4.818 1.478 5.992 1.605C7.153 1.73 8.217 2.397 9.048 3.451C9.936 4.578 10.748 6.183 11.384 7.625C11.695 8.329 12.544 8.499 13.06 8.1L13.153 8.019L13.768 7.404C14.215 6.95691 14.8147 6.69576 15.4465 6.67312C16.0783 6.65049 16.6952 6.86805 17.173 7.282L17.303 7.404L19.071 9.172L9.171 19.071L7.404 17.303C6.95691 16.856 6.69576 16.2563 6.67312 15.6245C6.65049 14.9927 6.86805 14.3758 7.282 13.898L7.404 13.768L8.019 13.153C8.519 12.653 8.373 11.714 7.625 11.384C6.183 10.748 4.578 9.936 3.451 9.048C2.398 8.217 1.731 7.153 1.605 5.992C1.478 4.818 1.922 3.692 2.808 2.808Z" fill="black"/>
</svg>
