<svg width="20" height="17" viewBox="0 0 20 17" fill="none" xmlns="http://www.w3.org/2000/svg">
<path fill-rule="evenodd" clip-rule="evenodd" d="M3.00393 6.42397C3.022 4.90757 3.5696 3.4452 4.55197 2.28989C5.53434 1.13459 6.88968 0.359043 8.38346 0.0974609C9.87723 -0.164122 11.4155 0.104715 12.732 0.857453C14.0485 1.61019 15.0604 2.79947 15.5927 4.21949C16.9923 4.60547 18.2046 5.48559 19.0051 6.69683C19.8056 7.90807 20.14 9.36836 19.9464 10.8073C19.7528 12.2461 19.0443 13.5661 17.9522 14.5227C16.86 15.4793 15.4582 16.0077 14.0063 16.0101H5.00437C3.85483 16.0108 2.74012 15.6155 1.84787 14.8907C0.95562 14.1659 0.340296 13.1559 0.105468 12.0306C-0.12936 10.9053 0.030644 9.73346 0.558551 8.7123C1.08646 7.69115 1.95003 6.88303 3.00393 6.42397Z" fill="black"/>
</svg>
