<svg width="24" height="24" viewBox="0 0 24 24" fill="none" xmlns="http://www.w3.org/2000/svg">
<path d="M16.28 3C16.9674 2.99986 17.634 3.23578 18.1682 3.66828C18.7025 4.10079 19.072 4.70365 19.215 5.376L19.246 5.551L20.953 16.851C21.0436 17.4724 21.0031 18.106 20.8341 18.7108C20.6651 19.3157 20.3714 19.8784 19.9718 20.3629C19.5723 20.8475 19.0757 21.243 18.5141 21.5241C17.9525 21.8051 17.3383 21.9656 16.711 21.995L16.5 22H7.5C6.87219 22.0002 6.25129 21.869 5.67721 21.6148C5.10314 21.3607 4.58859 20.9892 4.16666 20.5243C3.74472 20.0595 3.42472 19.5114 3.22725 18.9155C3.02977 18.3195 2.95917 17.6889 3.02 17.064L3.046 16.851L4.754 5.551C4.85683 4.87132 5.18996 4.24757 5.69765 3.78411C6.20533 3.32066 6.85679 3.04561 7.543 3.005L7.72 3H16.28ZM16.5 15H7.5C6.85011 14.9984 6.22515 15.25 5.75758 15.7013C5.29002 16.1527 5.01659 16.7684 4.99526 17.418C4.97394 18.0675 5.20639 18.6998 5.64334 19.1809C6.0803 19.6619 6.68741 19.9539 7.336 19.995L7.5 20H16.5C17.1499 20.0016 17.7748 19.75 18.2424 19.2987C18.71 18.8473 18.9834 18.2316 19.0047 17.582C19.0261 16.9325 18.7936 16.3002 18.3567 15.8191C17.9197 15.3381 17.3126 15.0461 16.664 15.005L16.5 15ZM16 16.5C16.2652 16.5 16.5196 16.6054 16.7071 16.7929C16.8946 16.9804 17 17.2348 17 17.5C17 17.7652 16.8946 18.0196 16.7071 18.2071C16.5196 18.3946 16.2652 18.5 16 18.5H12C11.7348 18.5 11.4804 18.3946 11.2929 18.2071C11.1054 18.0196 11 17.7652 11 17.5C11 17.2348 11.1054 16.9804 11.2929 16.7929C11.4804 16.6054 11.7348 16.5 12 16.5H16ZM8 16.5C8.26522 16.5 8.51957 16.6054 8.70711 16.7929C8.89464 16.9804 9 17.2348 9 17.5C9 17.7652 8.89464 18.0196 8.70711 18.2071C8.51957 18.3946 8.26522 18.5 8 18.5C7.73478 18.5 7.48043 18.3946 7.29289 18.2071C7.10536 18.0196 7 17.7652 7 17.5C7 17.2348 7.10536 16.9804 7.29289 16.7929C7.48043 16.6054 7.73478 16.5 8 16.5Z" fill="black"/>
</svg>
