<svg width="24" height="24" viewBox="0 0 24 24" fill="none" xmlns="http://www.w3.org/2000/svg">
<path d="M17 2C17.7652 1.99996 18.5015 2.29233 19.0583 2.81728C19.615 3.34224 19.9501 4.06011 19.995 4.824L20 5V17C20.2246 16.9995 20.4428 17.0747 20.6195 17.2134C20.7962 17.3521 20.921 17.5462 20.9739 17.7645C21.0268 17.9828 21.0047 18.2125 20.9111 18.4167C20.8175 18.6209 20.6579 18.7876 20.458 18.89L20.351 18.936L12.351 21.936C12.1709 22.0036 11.975 22.0179 11.787 21.977L11.649 21.937L3.649 18.937C3.43888 18.8587 3.26116 18.7121 3.14437 18.5207C3.02759 18.3293 2.97853 18.1042 3.00506 17.8816C3.03159 17.6589 3.13218 17.4516 3.29068 17.293C3.44917 17.1344 3.65637 17.0337 3.879 17.007L4 17V5C3.99996 4.23479 4.29233 3.49849 4.81728 2.94174C5.34224 2.38499 6.06011 2.04989 6.824 2.005L7 2H17ZM12 5C11.7551 5.00003 11.5187 5.08996 11.3356 5.25272C11.1526 5.41547 11.0357 5.63975 11.007 5.883L11 6V7H10C9.35011 6.99842 8.72515 7.24997 8.25758 7.70134C7.79002 8.15271 7.51659 8.76842 7.49526 9.41795C7.47394 10.0675 7.70639 10.6998 8.14334 11.1809C8.5803 11.6619 9.18741 11.9539 9.836 11.995L10 12H11V13H9C8.74512 13.0003 8.49997 13.0979 8.31463 13.2728C8.1293 13.4478 8.01777 13.687 8.00283 13.9414C7.98789 14.1958 8.07067 14.4464 8.23426 14.6418C8.39785 14.8373 8.6299 14.9629 8.883 14.993L9 15H11V16C11.0003 16.2549 11.0979 16.5 11.2728 16.6854C11.4478 16.8707 11.687 16.9822 11.9414 16.9972C12.1958 17.0121 12.4464 16.9293 12.6418 16.7657C12.8373 16.6021 12.9629 16.3701 12.993 16.117L13 16V15H14C14.6499 15.0016 15.2748 14.75 15.7424 14.2987C16.21 13.8473 16.4834 13.2316 16.5047 12.582C16.5261 11.9325 16.2936 11.3002 15.8567 10.8191C15.4197 10.3381 14.8126 10.0461 14.164 10.005L14 10H13V9H15C15.2549 8.99972 15.5 8.90212 15.6854 8.72715C15.8707 8.55218 15.9822 8.31305 15.9972 8.05861C16.0121 7.80416 15.9293 7.55362 15.7657 7.35817C15.6021 7.16271 15.3701 7.0371 15.117 7.007L15 7H13V6C13 5.73478 12.8946 5.48043 12.7071 5.29289C12.5196 5.10536 12.2652 5 12 5ZM14 12C14.1326 12 14.2598 12.0527 14.3536 12.1464C14.4473 12.2402 14.5 12.3674 14.5 12.5C14.5 12.6326 14.4473 12.7598 14.3536 12.8536C14.2598 12.9473 14.1326 13 14 13H13V12H14ZM11 9V10H10C9.86739 10 9.74021 9.94732 9.64645 9.85355C9.55268 9.75979 9.5 9.63261 9.5 9.5C9.5 9.36739 9.55268 9.24021 9.64645 9.14645C9.74021 9.05268 9.86739 9 10 9H11Z" fill="black"/>
</svg>
