<svg width="24" height="24" viewBox="0 0 24 24" fill="none" xmlns="http://www.w3.org/2000/svg">
<path d="M13.064 6.685L13.809 6.379C14.414 6.139 15.196 5.894 16.119 6.049C18.01 6.367 19.314 7.388 20.091 8.742C20.391 9.264 20.149 9.952 19.589 10.171C19.1093 10.3587 18.6992 10.6899 18.4148 11.1194C18.1304 11.549 17.9856 12.0558 18.0001 12.5708C18.0147 13.0857 18.1879 13.5836 18.4961 13.9964C18.8043 14.4092 19.2324 14.7167 19.722 14.877C20.24 15.047 20.532 15.622 20.362 16.14C19.92 17.482 19.284 18.721 18.531 19.721C17.787 20.709 16.879 21.529 15.868 21.93C15.208 22.19 14.5 22.093 13.823 21.925L13.421 21.818L12.824 21.645C12.553 21.566 12.274 21.498 12 21.498C11.725 21.498 11.447 21.566 11.176 21.645L10.579 21.818L10.177 21.925C9.5 22.093 8.791 22.191 8.132 21.93C6.859 21.426 5.736 20.25 4.887 18.863C3.96787 17.3356 3.36145 15.6408 3.103 13.877C2.876 12.323 2.999 10.578 3.718 9.102C4.458 7.581 5.814 6.397 7.881 6.049C8.721 5.908 9.443 6.097 10.021 6.314L10.352 6.444L10.936 6.685C11.336 6.842 11.651 6.934 12 6.934C12.348 6.934 12.664 6.842 13.064 6.685ZM11.768 2.768C12.744 1.791 14.243 1.707 14.596 2.061C14.95 2.414 14.866 3.913 13.889 4.889C12.913 5.865 11.414 5.949 11.061 5.596C10.707 5.243 10.791 3.744 11.768 2.768Z" fill="black"/>
</svg>
