<svg width="24" height="24" viewBox="0 0 24 24" fill="none" xmlns="http://www.w3.org/2000/svg">
<path d="M6 3C5.29152 2.99894 4.60553 3.24866 4.06353 3.70492C3.52152 4.16118 3.15849 4.79454 3.03871 5.49282C2.91894 6.1911 3.05016 6.90924 3.40913 7.52005C3.76811 8.13085 4.33167 8.5949 5 8.83V17C5 17.7957 5.31607 18.5587 5.87868 19.1213C6.44129 19.6839 7.20435 20 8 20H15.17C15.4059 20.6675 15.8702 21.2301 16.4808 21.5884C17.0914 21.9466 17.809 22.0775 18.5068 21.9578C19.2046 21.8381 19.8375 21.4756 20.2939 20.9344C20.7502 20.3931 21.0005 19.708 21.0005 19C21.0005 18.292 20.7502 17.6069 20.2939 17.0656C19.8375 16.5244 19.2046 16.1619 18.5068 16.0422C17.809 15.9225 17.0914 16.0534 16.4808 16.4116C15.8702 16.7699 15.4059 17.3325 15.17 18H8C7.73478 18 7.48043 17.8946 7.29289 17.7071C7.10536 17.5196 7 17.2652 7 17V13H15.17C15.4059 13.6675 15.8702 14.2301 16.4808 14.5884C17.0914 14.9466 17.809 15.0775 18.5068 14.9578C19.2046 14.8381 19.8375 14.4756 20.2939 13.9344C20.7502 13.3931 21.0005 12.708 21.0005 12C21.0005 11.292 20.7502 10.6069 20.2939 10.0656C19.8375 9.52437 19.2046 9.16186 18.5068 9.04219C17.809 8.92251 17.0914 9.05337 16.4808 9.41164C15.8702 9.76991 15.4059 10.3325 15.17 11H7V8.83C7.66715 8.59385 8.22937 8.12952 8.58736 7.51903C8.94535 6.90854 9.07607 6.19118 8.95643 5.49366C8.83678 4.79613 8.47447 4.16334 7.9335 3.70704C7.39253 3.25075 6.70771 3.00032 6 3Z" fill="black"/>
</svg>
